<svg width="500" height="500" viewBox="0 0 500 500" fill="none" xmlns="http://www.w3.org/2000/svg">
<g clip-path="url(#clip0_37_3120)">
<rect width="500" height="500" rx="16" fill="url(#paint0_linear_37_3120)" style=""/>
<path d="M124.465 512.242L-10 377.777L45.5455 322.232C55.6128 312.165 66.1178 305.292 77.0606 301.616C88.0034 297.851 98.8367 297.348 109.561 300.106C120.241 302.819 130.177 308.772 139.369 317.964C148.692 327.287 154.579 337.245 157.03 347.838C159.438 358.387 158.606 369.111 154.535 380.01C150.421 390.865 143.242 401.414 133 411.656L97.8737 446.782L72.2677 421.176L101.354 392.09C106.256 387.188 109.714 382.461 111.727 377.909C113.741 373.269 114.288 368.782 113.369 364.449C112.406 360.072 109.845 355.804 105.687 351.646C101.529 347.488 97.2391 344.905 92.8182 343.899C88.3535 342.848 83.7795 343.308 79.096 345.277C74.3687 347.203 69.5758 350.596 64.7172 355.454L48.697 371.474L156.965 479.742L124.465 512.242ZM138.712 375.085L233.652 403.055L198.197 438.51L103.914 409.883L138.712 375.085Z" fill="white" style="fill:white;fill-opacity:1;"/>
<path d="M246.881 389.825L112.417 255.361L206.174 161.603L232.568 187.997L171.311 249.255L198.886 276.83L255.351 220.366L281.811 246.825L225.346 303.29L252.987 330.931L314.245 269.674L340.639 296.068L246.881 389.825Z" fill="white" style="fill:white;fill-opacity:1;"/>
<path d="M259.028 108.75L393.492 243.214L360.992 275.714L226.528 141.25L259.028 108.75Z" fill="white" style="fill:white;fill-opacity:1;"/>
<path d="M516.359 118.527L381.894 -15.9376L326.349 39.6079C316.282 49.6752 309.41 60.1803 305.733 71.123C301.968 82.0658 301.465 92.8991 304.223 103.623C306.936 114.303 312.889 124.239 322.081 133.431C331.405 142.754 341.362 148.642 351.955 151.093C362.504 153.5 373.228 152.668 384.127 148.598C394.982 144.483 405.531 137.305 415.773 127.062L450.899 91.9361L425.293 66.3301L396.208 95.4159C391.305 100.318 386.578 103.776 382.026 105.79C377.386 107.803 372.899 108.35 368.566 107.431C364.189 106.468 359.921 103.908 355.763 99.7493C351.605 95.591 349.022 91.3015 348.016 86.8806C346.965 82.4159 347.425 77.8419 349.394 73.1584C351.32 68.4311 354.713 63.6382 359.571 58.7796L375.591 42.7594L483.859 151.027L516.359 118.527ZM379.202 132.775L407.172 227.714L442.627 192.259L414 97.9765L379.202 132.775Z" fill="white" style="fill:white;fill-opacity:1;"/>
</g>
<defs>
<linearGradient id="paint0_linear_37_3120" x1="0" y1="0" x2="563.5" y2="570" gradientUnits="userSpaceOnUse">
<stop stop-color="#2970FF" style="stop-color:#2970FF;stop-color:color(display-p3 0.1608 0.4392 1.0000);stop-opacity:1;"/>
<stop offset="1" style="stop-color:black;stop-opacity:1;"/>
</linearGradient>
<clipPath id="clip0_37_3120">
<rect width="500" height="500" rx="16" fill="white" style="fill:white;fill-opacity:1;"/>
</clipPath>
</defs>
</svg>
